<?xml version="1.0" encoding="utf-8"?>
<!-- Generator: Adobe Illustrator 25.4.1, SVG Export Plug-In . SVG Version: 6.00 Build 0)  -->
<svg version="1.1" id="Layer_1" xmlns="http://www.w3.org/2000/svg" xmlns:xlink="http://www.w3.org/1999/xlink" x="0px" y="0px"
	 viewBox="0 0 200 200" style="enable-background:new 0 0 200 200;" xml:space="preserve">
<style type="text/css">
	.st0{fill:#A5A5A5;}
</style>
<g>
	<path class="st0" d="M179.99,157.56c-0.48,3.89-1.03,5.88-2.5,7.35c-1.5,0.82-3.86,2.85-5.27,2.21c-0.6-0.27-1.57-0.08-2.22,0.21
		c-0.52,0.24-0.34,1.82,0.17,2.45c0.54,0.68,0.96,1.42,0.51,2.26c-0.45,0.85-1.09,1.51-2.21,1.39c-0.78-0.09-1.56-0.11-2.34-0.19
		c-0.56-0.06-0.99,0-0.91,0.72c0.09,0.74,0.15,1.5,0.3,2.23c0.37,1.63,0.08,2.08-1.55,2.01c-0.68-0.02-1.34-0.25-2.02-0.37
		c-0.7-0.12-1.29-0.15-1.41,0.84c-0.05,0.36-0.5,0.96-0.72,0.94c-0.42-0.05-0.85-0.39-1.18-0.71c-0.42-0.39-0.53-1.32-1.34-0.99
		c-0.77,0.3-1.09,1.08-0.89,1.9c0.41,1.72-0.24,3.14-1.17,4.45c-0.69,0.97-1.87,0.89-2.91,1.08c-0.52,0.1-1.14,0.19-1.49,0.53
		c-1.61,1.55-3.44,2.34-5.7,1.92c-0.16-0.03-0.42,0.08-0.53,0.21c-1.75,2.04-4.21,2.32-6.61,2.96c-3.01,0.79-5.77-0.35-8.63-0.63
		c-0.62-0.06-1.24-0.02-1.86-0.03c-3.31-0.06-6.42-0.8-9.4-2.28c-1.86-0.93-3.87-1.53-5.79-2.35c-2.34-0.98-4.29-2.56-6.27-4.1
		c-0.91-0.71-1.96-1.26-3.02-1.74c-2.93-1.32-5.2-3.48-7.37-5.77c-1.09-1.16-1.52-1.14-2.69-0.02c-1.91,1.84-3.87,3.61-5.79,5.44
		c-0.69,0.65-1.34,1.3-1.28,2.45c0.03,0.56-0.42,1.18-0.74,1.73c-1.48,2.48-3.9,3.33-6.57,3.71c-1.46,0.21-2.81,0.34-3.85,1.76
		c-1.18,1.61-3.16,1.48-5.02,1.52c-3.23,0.07-5.57-1.58-7.82-3.6c-0.69-0.62-1.57-1.12-2.44-1.46c-3-1.16-5.97-2.44-8-5.02
		c-1.2-1.51-1.91-3.41-2.95-5.07c-0.42-0.67-1.05-1.29-1.73-1.67c-2.02-1.15-3.77-2.58-4.83-4.67c-1.06-2.07-2.3-3.86-4.4-5.04
		c-0.79-0.44-1.47-1.32-1.86-2.16c-1.21-2.57-2.19-5.25-3.39-7.82c-0.82-1.76-0.45-3.46-0.19-5.24c0.2-1.39,0.26-2.82,0.16-4.22
		c-0.15-1.95,0.11-3.69,1.25-5.38c0.45-0.67,0.17-1.84,0.17-2.79c0-0.65-0.21-1.33-0.08-1.94c0.11-0.51,0.55-0.96,0.9-1.4
		c0.16-0.2,0.44-0.32,0.67-0.45c2.27-1.39,2.58-3.85,3.35-6.07c0.88-2.54,1.87-5.01,3.88-6.94c0.43-0.42,0.73-1.26,0.64-1.85
		c-0.34-2.27,1.02-3.58,2.46-4.9c0.06-0.05,0.12-0.08,0.16-0.14c1-1.72,2.69-1.65,4.34-1.72c0.43-0.01,0.87-0.16,1.29-0.29
		c1.34-0.44,2.63-0.61,3.96,0.11c1.87,1,3.8,1.93,5.73,2.84c2.17,1.03,3.69,2.74,5.12,4.58c0.24,0.3,0.63,0.72,0.91,0.7
		c1.76-0.15,3.04,0.95,4.46,1.64c1.15,0.55,2.34,1.04,3.44,1.67c1.25,0.71,2.44,1.53,3.65,2.31c0.26,0.16,0.52,0.3,0.95,0.56
		c0.06-0.44,0.12-0.72,0.12-1c0.01-1.21,0.06-2.43-0.01-3.63c-0.06-1.02-0.27-2.02-0.39-3.04c-0.16-1.4-0.36-2.8-0.41-4.21
		c-0.07-2.1-0.27-4.13-0.97-6.17c-0.55-1.64-0.69-3.43-0.86-5.17c-0.29-2.98-0.82-6-0.62-8.96c0.3-4.39-0.69-8.52-1.57-12.71
		c-0.23-1.07-0.1-2.22-0.38-3.27c-0.41-1.53-0.93-3.06-1.59-4.5c-0.23-0.5-0.98-0.91-1.57-1.05c-2.78-0.63-5.28-1.79-7.3-3.81
		c-0.78-0.78-1.72-0.73-2.61-1c-2.02-0.63-3.98-1.5-6.04-1.96c-3.59-0.81-7-2.03-10.05-4.06c-1.11-0.73-2.1-1.67-3.1-2.55
		c-2.31-2.02-4.65-4.02-6.87-6.13c-1.47-1.39-2.84-2.9-4.09-4.49c-1.48-1.9-2.86-3.89-4.13-5.92c-1.13-1.81-2.02-3.75-3.08-5.59
		c-0.53-0.91-1.31-1.69-1.84-2.61c-0.85-1.44-1.63-2.93-2.35-4.45c-1.11-2.31-1.04-4.8-1.03-7.29c0.01-2.3-0.07-4.6-0.24-6.9
		c-0.09-1.25-0.45-2.49-0.7-3.74c-0.07-0.67-0.35-1.41,0.41-1.78c0.7-0.34,1.34,0.07,1.65,0.69c0.85,1.76,2.46,1.9,4.04,1.88
		c3.28-0.01,5.19,2.03,6.68,4.5c1.13,1.87,1.85,3.99,2.88,5.94c1.86,3.49,3.8,6.94,5.77,10.37c0.41,0.7,0.95,1.39,1.59,1.87
		c2.87,2.18,5.07,4.85,6.44,8.18c0.15,0.35,0.39,0.71,0.38,1.05c-0.07,1.53,0.93,2.46,1.84,3.45c1.86,2.04,3.75,4.06,5.59,6.12
		c0.71,0.8,0.98,1.85,1.46,2.76c0.58,1.15,1.79,2.21,2.99,2.78c3.16,1.51,6.46,2.74,9.69,4.07c0.47,0.19,0.97,0.36,1.46,0.52
		c0.96,0.3,1.24,0.03,1.17-0.99c-0.1-1.48-0.29-2.97-0.19-4.44c0.11-1.63,0.16-3.16-0.45-4.74c-0.32-0.81-0.12-1.84-0.08-2.78
		c0.12-2.87,0.37-5.72,0.41-8.59c0.02-1.79,0.3-3.48,0.87-5.17c0.59-1.75,1.12-3.54,1.41-5.35c0.35-2.13,1.51-3.86,2.46-5.7
		c0.72-1.4,1.6-2.74,2.57-3.98c1.33-1.72,2.74-3.39,4.89-4.19c0.37-0.14,0.68-0.45,1-0.71c1.08-0.85,2.25-1.63,3.24-2.57
		c1.82-1.73,3.69-3.44,5.21-5.42c0.77-0.99,1.42-1.16,2.49-1.16c1.12,0,2.26-0.42,3.36-0.36c1.7,0.09,3.41,0.39,5.1,0.67
		c1.32,0.21,2.56,0.2,3.6-0.77c1.09-1.02,2.38-0.88,3.7-0.64c0.77,0.14,1.57,0.16,2.34,0.3c0.63,0.11,1.37,0.18,1.84,0.54
		c1.61,1.23,3.19,2.51,4.67,3.89c1.23,1.15,2.26,2.51,3.45,3.7c1.12,1.12,2.35,2.12,3.48,3.23c1.72,1.68,2.79,3.72,3.34,6.06
		c0.59,2.44,1.59,4.65,3.42,6.48c0.63,0.62,1,1.56,1.34,2.4c0.62,1.52,1.18,3.07,1.65,4.64c0.26,0.88,0.24,1.83,0.37,2.74
		c0.2,1.32,0.51,2.62,0.62,3.95c0.11,1.32,0.21,2.67,0.05,3.98c-0.35,2.74-1.32,5.29-2.63,7.73c-0.97,1.81-2.57,2.9-4.12,4.11
		c-1.21,0.95-2.64,1.72-2.73,3.62c-0.06,1.07-0.6,2-1.56,2.76c-1.11,0.89-1.99,2.09-2.86,3.24c-0.56,0.73-1.17,1.22-2.04,1.6
		c-1.52,0.68-3.28,1.22-3.97,2.99c-0.25,0.64-0.18,1.41-0.2,2.13c-0.02,0.69-0.45,1.23-1,0.94c-1.57-0.86-2.57,0.38-3.77,0.82
		c-0.95,0.35-1.81,0.54-2.65-0.18c-1.3-1.09-2.71-1.09-4.12-0.27c-0.89,0.53-1.72,0.86-2.66,0.1c-0.16-0.12-0.68,0-0.87,0.17
		c-1.48,1.35-2.47,1.53-4.28,0.69c-0.24-0.11-0.49-0.19-0.86-0.33c0.03,0.58-0.02,1.03,0.09,1.43c0.7,2.39,0.64,4.78,0.18,7.21
		c-0.12,0.64-0.15,1.41,0.07,2.01c0.8,2.25,0.91,4.54,1.02,6.88c0.09,2.18,0.55,4.33,0.85,6.5c0.09,0.64,0.24,1.29,0.29,1.93
		c0.24,2.88,0.43,5.76,0.69,8.63c0.14,1.47,0.47,2.91,0.6,4.37c0.21,2.39,0.41,4.8,0.46,7.2c0.05,1.55-0.25,3.1-0.21,4.65
		c0.05,1.65,0.29,3.3,0.45,4.93c0.05,0.44,0.1,0.88,0.14,1.33c0.15,2.02,0.03,4.11,0.5,6.06c0.37,1.56,1.35,2.99,2.21,4.39
		c0.55,0.89,1.32,1.67,2.07,2.41c2.1,2.09,3.79,4.46,5.1,7.11c1.18,2.41,2.54,4.69,4.42,6.7c1.57,1.67,2.8,3.67,4.15,5.53
		c1.09,1.5,2.41,2.67,4.09,3.58c1.25,0.67,2.19,1.9,3.4,2.7c1.18,0.78,2.47,1.53,3.83,1.92c1.44,0.42,2.79,0.8,4.02,1.76
		c0.43,0.34,1.43,0.14,2.1-0.06c1.61-0.46,3.08-0.34,4.37,0.74c0.67,0.55,0.99,0.5,1.22-0.32c0.21-0.77,0.69-1.21,1.49-1.41
		c1.16-0.29,2.3-0.69,3.44-1.05c0.16-0.05,0.34-0.14,0.44-0.25c1.57-1.78,3.11-3.58,4.67-5.36c0.34-0.38,0.67-0.78,1.04-1.21
		c-0.38-0.47-1.08-0.94-1.05-1.37c0.09-1.44-0.69-2.54-1.14-3.77c-0.11-0.3,0.26-0.88,0.56-1.18c0.14-0.14,0.73,0,0.96,0.2
		c0.34,0.29,0.55,0.74,0.94,1.31c0.19-0.44,0.42-0.82,0.52-1.24c0.07-0.28-0.1-0.63-0.02-0.93c0.14-0.52,0.36-1.02,0.55-1.52
		c0.41,0.29,0.86,0.55,1.21,0.9c0.5,0.5,0.87,1.14,1.4,1.58c0.21,0.18,0.73-0.02,1.12-0.06c-0.05-0.44,0.07-1.04-0.17-1.28
		c-1.21-1.21-1.81-2.57-1.6-4.29c0.1-0.86-0.21-1.46-0.97-1.99c-0.99-0.7-1.85-1.58-2.72-2.44c-0.6-0.58-0.59-2.46,0.03-3
		c0.16-0.14,0.6-0.14,0.8,0c0.49,0.32,0.9,0.73,1.34,1.11c0.96-0.67,1.96-0.28,2.96-0.26c0.44,0.01,0.88-0.25,1.32-0.38
		c0.3-0.1,0.62-0.2,0.93-0.29c0.21-0.07,0.61-0.09,0.61-0.17c0.03-0.24-0.02-0.55-0.17-0.73c-0.86-1.07-1.81-2.07-2.6-3.18
		c-0.5-0.71-0.94-1.55-1.09-2.39c-0.34-1.73-1.04-4.32-2.48-5.39c-0.15,0.12-0.29,0.25-0.45,0.37c-0.95,0.76-1.87,0.52-2.51-0.51
		c-0.25-0.41-0.73-0.78-1.2-0.95c-1.21-0.43-1.49-0.94-0.99-2.13c0.1-0.26,0.21-0.59,0.12-0.82c-0.05-0.14-0.59-0.26-0.71-0.16
		c-0.19,0.17-0.25,0.52-0.29,0.8c-0.08,0.43-0.09,0.87-0.14,1.32c-1.68-0.46-3.15-0.59-4.43,0.82c-0.77,0.85-1.75,1.5-2.69,2.17
		c-0.2,0.15-0.62-0.02-0.94,0c-0.41,0.02-0.89-0.05-1.22,0.15c-1.22,0.72-2.34,1.57-3.9,1.24c-0.69-0.15-1.22,0.21-1.57,0.9
		c-0.86,1.66-2.27,1.81-3.54,0.46c-0.96-1-1.87-2.05-2.95-2.92c-1.46-1.2-1.59-2.72-1.44-4.39c0.03-0.34,0.08-0.67,0.12-1.08
		c-0.88,0.07-0.91,0.63-1,1.22c-0.14,0.77-0.21,1.6-0.58,2.26c-0.24,0.44-1.04,0.97-1.4,0.86c-0.47-0.15-0.82-0.86-1.12-1.39
		c-0.25-0.46-0.25-1.07-0.51-1.52c-1.48-2.56-1.5-5.25-0.77-7.99c0.25-0.91,0.76-1.76,1.04-2.67c0.23-0.74,0.34-1.55,0.43-2.32
		c0.14-1.29,0.89-1.94,2.14-2.03c0.53-0.03,1.09-0.42,1.53-0.77c0.93-0.74,1.66-1.9,2.71-2.3c1.11-0.43,1.7-1.15,2.35-1.99
		c0.23-0.29,0.5-0.63,0.82-0.74c1.51-0.51,2.48-1.68,3.65-2.64c0.76-0.62,1.67-1.12,2.6-1.44c0.73-0.26,1.4,0.08,1.67,0.97
		c0.09,0.28,0.46,0.7,0.67,0.68c0.6-0.07,1.2-0.27,1.73-0.54c0.11-0.06,0-0.7-0.14-1.03c-0.21-0.51-0.64-0.95-0.76-1.46
		c-0.11-0.46,0.07-1,0.11-1.51c0.61,0.2,1.29,0.32,1.81,0.65c0.24,0.16,0.3,0.77,0.26,1.15c-0.28,2.54,2.35,4.6,4.31,5.01
		c1.28,0.26,2.63,0.11,3.94,0.19c0.33,0.02,0.73,0.1,0.94,0.32c0.98,1.08,2.12,1.96,2.79,3.4c0.39,0.86,1.63,1.39,2.57,1.91
		c0.51,0.28,1.21,0.32,1.82,0.33c1.03,0,1.84,0.34,2.58,1.06c0.55,0.53,1.33,0.81,1.93,1.31c1.51,1.25,1.88,3.05,2.2,4.85
		c0.2,1.17,0.41,2.36,0.65,3.53c0.05,0.21,0.3,0.51,0.5,0.54c2.09,0.33,3.07,2.01,4.23,3.43c2.23,2.72,4.37,5.52,6.64,8.2
		c1.05,1.24,1.23,2.51,0.87,4.03C180.35,148,180.1,156.5,179.99,157.56 M53.37,135.71c0-0.06,0-0.11,0-0.17
		c-0.72,0-1.46-0.02-2.18,0.01c-0.28,0.01-0.6,0.12-0.85,0.27c-0.44,0.27-0.81,0.68-1.28,0.91c-1.46,0.72-2.83,1.81-2.98,3.33
		c-0.21,2.3-0.06,4.72,0.39,6.99c0.47,2.41,1.44,4.74,2.27,7.08c1.31,3.68,3.44,6.88,6.49,9.25c1.69,1.31,3.85,2.23,5.95,2.75
		c2.05,0.5,4.2,0.54,5.92,1.99c0.49,0.41,0.93,0.21,1.15-0.34c0.37-0.89,1.12-1.28,1.95-1.57c1.24-0.43,2.53-0.74,3.71-1.28
		c0.71-0.32,1.53-0.81,1.88-1.46c1.58-2.87,3.06-5.79,4.48-8.75c0.73-1.53,0.9-3.1-0.42-4.53c-0.94-1-1.85-2.04-2.72-3.11
		c-0.71-0.88-1.48-1.76-1.99-2.75c-0.58-1.13-0.56-2.3,0.43-3.34c0.26-0.27,0.42-1.06,0.24-1.25c-0.33-0.34-0.93-0.5-1.43-0.54
		c-0.15-0.01-0.34,0.61-0.53,0.94c-0.21,0.36-0.37,0.89-0.69,1.02c-0.7,0.29-1.51,0.69-2.22-0.01c-0.52-0.51-0.97-1.08-1.49-1.59
		c-0.32-0.3-0.68-0.59-1.06-0.77c-1.51-0.7-3.07-1.31-4.56-2.05c-1.08-0.54-2.11-1.08-3.39-1.05
		C58.1,135.74,55.73,135.71,53.37,135.71z M101.79,21.89c-3.61-0.52-5.68,1.37-7.63,3.22c-0.93,0.87-1.29,2.3-1.99,3.44
		c-1.44,2.34-1.5,4.91-1.21,7.48c0.29,2.54,0.82,5.04,1.28,7.57c0.37,2.09,0.77,4.16,1.18,6.24c0.14,0.7,0.49,1.37,0.56,2.07
		c0.19,1.88,0.28,3.77,0.44,5.65c0.08,0.96,0.17,1.92,0.36,2.86c0.15,0.74,0.65,0.84,1.31,0.46c2.12-1.18,4.23-2.4,6.43-3.44
		c2.1-0.99,2.83-1.99,2.66-4.25c-0.02-0.35-0.12-0.69-0.09-1.03c0.08-0.86,0.45-1.5,1.38-1.69c1.35-0.28,2.66-1.73,2.84-3.08
		c0.21-1.64,0.46-3.27,0.69-4.91c0.1-0.79,0.42-1.33,1.24-1.6c0.28-0.09,0.56-0.55,0.61-0.88c0.24-1.77,0.44-3.55,0.55-5.34
		c0.07-0.98-0.01-1.99-0.12-2.97c-0.16-1.35-0.53-2.7-0.59-4.06c-0.08-2.2-0.03-4.39-1.29-6.36c-0.82-1.3-1.12-1.44-2.47-0.77
		c-0.25,0.12-0.5,0.26-0.77,0.29c-0.82,0.14-1.67,0.17-2.49,0.34C103.56,21.37,102.43,21.71,101.79,21.89z M132.15,130.2
		c-0.69-1.09-0.93-2.19-0.46-3.39c0.1-0.27-0.05-0.64-0.08-0.97c-0.29,0.21-0.63,0.38-0.87,0.65c-0.47,0.53-0.91,1.09-1.33,1.67
		c-0.2,0.29-0.45,0.65-0.44,0.98c0.02,0.8,0.19,1.59,0.28,2.28C130.22,131.02,131.15,130.62,132.15,130.2z M158.84,133.68
		c-0.72-0.94-1.33-1.84-2.07-2.64c-0.58-0.63-1.78-0.55-2.21,0.07c-0.59,0.85,0.16,1.13,0.68,1.5c0.19,0.14,0.36,0.33,0.52,0.51
		c0.54,0.63,1.07,1.2,1.99,0.47C157.92,133.43,158.36,133.62,158.84,133.68z M132.36,128.74c0.14,0.05,0.26,0.1,0.39,0.15
		c0.35-0.44,0.76-0.86,1.02-1.34c0.08-0.15-0.17-0.61-0.38-0.73c-0.16-0.09-0.68,0.07-0.72,0.21
		C132.5,127.57,132.45,128.16,132.36,128.74z M102.38,66.48c-0.59,1.11-0.44,1.9,0.21,2.09c0.16,0.05,0.63-0.35,0.61-0.41
		C103.01,67.65,102.74,67.18,102.38,66.48z M73.66,129.84c-0.64,0.77-0.11,1.23,0.29,1.65c0.1,0.1,0.63,0.01,0.69-0.11
		C75,130.52,74.24,130.29,73.66,129.84z M163.61,169.85c-0.06,0.19-0.11,0.38-0.17,0.58c0.43,0.21,0.85,0.43,1.28,0.64
		c0.02-0.37,0.2-0.93,0.03-1.07C164.49,169.79,163.99,169.88,163.61,169.85z M155,164.61c-0.11-0.01-0.21-0.02-0.33-0.02
		c-0.11,0.41-0.29,0.81-0.3,1.23c-0.01,0.21,0.28,0.43,0.43,0.65c0.16-0.2,0.46-0.39,0.45-0.6
		C155.26,165.45,155.1,165.03,155,164.61z M158.54,152.38c-0.18-0.03-0.37-0.07-0.55-0.1c-0.06,0.33-0.16,0.67-0.16,0.99
		c0,0.08,0.32,0.16,0.49,0.24C158.4,153.12,158.48,152.75,158.54,152.38z"/>
	<path class="st0" d="M153.86,140.33c1.55,0.28,2.41,1.39,3.25,2.47c0.49,0.63,0.69,1.41,0.05,2.19c-0.16,0.2-0.18,0.76-0.02,0.94
		c0.62,0.68,1.32,1.29,2.01,1.9c0.55,0.5,0.96,1.15,0.26,1.63c-0.44,0.3-1.47,0.37-1.82,0.07c-1.12-0.96-2.05-2.05-1.87-3.8
		c0.07-0.63-0.63-1.47-1.2-2C153.34,142.59,153.15,142.01,153.86,140.33z"/>
	<path class="st0" d="M60.45,57.66c-0.46-0.12-1.37-0.2-2.05-0.63c-0.42-0.26-0.56-1.05-0.7-1.64c-0.03-0.14,0.5-0.61,0.68-0.56
		c1.18,0.29,2.44,0.55,3.1,1.78C61.82,57.27,61.58,57.65,60.45,57.66z"/>
	<path class="st0" d="M37.84,185.98c0.38-0.23,0.74-0.59,1.15-0.64c0.55-0.09,1.22,0.84,0.98,1.4c-0.15,0.34-0.76,0.76-1.03,0.69
		c-0.44-0.12-0.78-0.62-1.16-0.96C37.79,186.3,37.82,186.14,37.84,185.98z"/>
	<path class="st0" d="M47.24,187.61c-0.62-0.72-0.67-2.19-0.2-2.57c0.11-0.09,0.38-0.16,0.45-0.1c0.19,0.17,0.46,0.44,0.42,0.61
		C47.76,186.22,47.5,186.85,47.24,187.61z"/>
	<path class="st0" d="M62.14,158.64c-0.6,0.55-0.9,1.06-1.33,1.2c-0.55,0.18-1.55-0.73-1.35-1.23c0.18-0.46,0.72-1.09,1.09-1.09
		C61,157.51,61.45,158.11,62.14,158.64z"/>
</g>
</svg>
